/* XPM */
static char *result[] = {
/* columns rows colors chars-per-pixel */
"32 32 9 1 ",
"  c black",
". c #060606",
"X c gray7",
"o c #D8A038",
"O c #F8F800",
"+ c #F8D820",
"@ c #F9DC35",
"# c white",
"$ c None",
/* pixels */
"$$$$$$$$$$$$        $$$$$$$$$$$$",
"$$$$$$$$$$$$........$$$$$$$$$$$$",
"$$$$$$$$   .########.   $$$$$$$$",
"$$$$$$$$....########.   $$$$$$$$",
"$$$$$$ .X###@@@@@@@@++oo  $$$$$$",
"$$$$$$ .X###@+@@@@++++oo  $$$$$$",
"$$$$$$ .##@@OO####OO++oo  $$$$$$",
"$$$$$$..##@+OO####OO++oo  $$$$$$",
"$$$$ .##@@OO##OO@@. OO++oo  $$$$",
"$$$$ .##@+OO##@+++  OO++oo  $$$$",
"$$$$ .##@+OO##@+++  OO++oo  $$$$",
"$$$$ .##@+OO##@+++  OO++oo  $$$$",
"$$$$ .##@+OO##@+++  OO++oo  $$$$",
"$$$$ .##@+OO##@+++  OO++oo  $$$$",
"$$$$ .##@+OO##@+++  OO++oo  $$$$",
"$$$$ .##@+OO##@+++  OO++oo  $$$$",
"$$$$ .##@+OO##@+++  OO++oo  $$$$",
"$$$$ .##@+OO##@+++  OO++oo  $$$$",
"$$$$ .##@+OO##@+++  OO++oo  $$$$",
"$$$$ .##@+OO##@+++  OO++oo  $$$$",
"$$$$ .##@+OO##@+++  OO++oo  $$$$",
"$$$$ .##@+OO##@+++  OO++oo  $$$$",
"$$$$ .##@+OO##@+++  OO++oo  $$$$",
"$$$$ .##@+OO##@+++  OO++oo  $$$$",
"$$$$$$..@+OOOO.   OO++oo..$$$$$$",
"$$$$$$  ++OOOO    OO++oo..$$$$$$",
"$$$$$$  ++++++++++++oooo..$$$$$$",
"$$$$$$  ++++++++++++oooo..$$$$$$",
"$$$$$$$$    oooooooo    $$$$$$$$",
"$$$$$$$$    oooooooo    $$$$$$$$",
"$$$$$$$$$$$$        $$$$$$$$$$$$",
"$$$$$$$$$$$$        $$$$$$$$$$$$"
};
