/* XPM */
static char *result[] = {
/* columns rows colors chars-per-pixel */
"32 32 12 1 ",
"  c #A7704F",
". c #A97150",
"X c #AC7353",
"o c #AB7453",
"O c #B07957",
"+ c #B8805F",
"@ c #C9916D",
"# c #D69D77",
"$ c #E7AE88",
"% c #EAB08A",
"& c #FFC49C",
"* c None",
/* pixels */
"********************************",
"********************************",
"******XXXXXXXXXXXXXXXXXXXX******",
"*****X#$$$$$$$$$$$$$$$$$$#X*****",
"*****X$ ++++++++++++++++ $X*****",
"*****X$+&&&&&&&&&&&&&&&&+$X*****",
"*****X$+&&&&&&&&&&&&&&&&+$X*****",
"*****X$+&&&&&&&&&&&&&&&&+$X*****",
"*****X$+&&&&&&&&&&&&&&&&+$X*****",
"*****X$+&&&&&&&&&&&&&&&&+$X*****",
"*****X$+&&&&&&&&&&&&&&&&+$X*****",
"*****X$+&&&&&&&&&&&&&&&&+$X*****",
"*****X$+&&&&&&&&&&&&&&&&+$X*****",
"*****X$+&&&&&&&&&&&&&&&&+$X*****",
"*****X$+&&&&&&&&&&&&&&&&+$X*****",
"*****X$+&&&&&&&&&&&&&&&&+$X*****",
"*****X$+&&&&&&&&&&&&&@@&+$X*****",
"*****X$+&&&&&&&&&&&&&%%&+$X*****",
"*****X$+&&&&&&&&&&&&&&&&+$X*****",
"*****X$+&&&&&&&&&&&&&&&&+$X*****",
"*****X$+&&&&&&&&&&&&&&&&+$X*****",
"*****X$+&&&&&&&&&&&&&&&&+$X*****",
"*****X$+&&&&&&&&&&&&&&&&+$X*****",
"*****X$+&&&&&&&&&&&&&&&&+$X*****",
"*****X$+&&&&&&&&&&&&&&&&+$X*****",
"*****X$+&&&&&&&&&&&&&&&&+$X*****",
"*****X$+&&&&&&&&&&&&&&&&+$X*****",
"*****X$+&&&&&&&&&&&&&&&&+$X*****",
"*****X#O$$$$$$$$$$$$$$$$O#X*****",
"******X.oooooooooooooooo.X******",
"********************************",
"********************************"
};
