/* XPM */
static char *result[] = {
/* columns rows colors chars-per-pixel */
"32 32 35 1 ",
"  c #F43B00",
". c #F03F00",
"X c #F83800",
"o c #F83901",
"O c #AF7F00",
"+ c #B87500",
"@ c #B87600",
"# c #B27B00",
"$ c #B07D00",
"% c #EE4000",
"& c #F84307",
"* c #F84408",
"= c #F84508",
"- c #C06E00",
"; c #B18002",
": c #B28002",
"> c #B78207",
", c #B98308",
"< c #C0860F",
"1 c #C18710",
"2 c #FD8936",
"3 c #EC9A36",
"4 c #ED9B37",
"5 c #FD903A",
"6 c #FE953E",
"7 c #FE973F",
"8 c #F59E3E",
"9 c #F69F3F",
"0 c #FE9E43",
"q c #FBA143",
"w c #FEA145",
"e c #FCA245",
"r c #FDA245",
"t c #FFA347",
"y c None",
/* pixels */
"yyyyyyyyyyXXXXXXXXXXyyyyyyyyyyyy",
"yyyyyyyyyyXXXXXXXXXXyyyyyyyyyyyy",
"yyyyyyyyXXXXXXXXXXXXXXXXXXyyyyyy",
"yyyyyyyyXXXXXXXXXXXXXXXXXXyyyyyy",
"yyyyyyyyOOOOO,ttt8O,t0yyyyyyyyyy",
"yyyyyyyyOOOOO,ttt8O,ttyyyyyyyyyy",
"yyyyyyO,t8O,ttttt8O,ttttttyyyyyy",
"yyyyyyO,t8O>89ttt9,<89ttttyyyyyy",
"yyyyyyO,t8OOO,ttttt8O,ttttttyyyy",
"yyyyyyO>84,,,1tttr83O>8888etyyyy",
"yyyyyyOOO,ttttttt8OOOOOOO;yyyyyy",
"yyyyyyOOO,ttttttt8OOOOOOOOyyyyyy",
"yyyyyyyyyytttttttttttttqyyyyyyyy",
"yyyyyyyyyyttttttttttttttyyyyyyyy",
"yyyyyyyyOOO@X%OOOOO:yyyyyyyyyyyy",
"yyyyyyyyOOO@X%OOO$@+yyyyyyyyyyyy",
"yyyyyyOOOOO@X%OOO@X%OOOOOOyyyyyy",
"yyyyyyOOOOO@X.@@@-X%OOOOOOyyyyyy",
"yyyyOOOOOOO@XXXXXXX%OOOOOOOOyyyy",
"yyyyOOOOOOO@XXXXXXX%OOOOOOOOyyyy",
"yyyyttt8O@X=t6XXX=t6X%O,ttttyyyy",
"yyyyttt8O@X=t6XXX=t6X%O,ttttyyyy",
"yyyyttttt6XXXXXXXXXXX=ttttttyyyy",
"yyyytttw62XXXXXXXXXXX&67ttttyyyy",
"yyyyttt6XXXXXXXXXXXXXXX=ttttyyyy",
"yyyyttt5XXXXXXXXXXXXXXX*0tttyyyy",
"yyyyyyyyXXXXXXyyyyXXXXXoyyyyyyyy",
"yyyyyyyyXXXXXXyyyyXXXXX yyyyyyyy",
"yyyyyyOOOOO#yyyyyyyyOOOOOOyyyyyy",
"yyyyyyOOOOOOyyyyyyyyOOOOOOyyyyyy",
"yyyyOOOOOOOOyyyyyyyyOOOOOOOOyyyy",
"yyyyOOOOOOOOyyyyyyyyOOOOOOOOyyyy"
};
