/* XPM */
static char *result[] = {
/* columns rows colors chars-per-pixel */
"32 32 19 1 ",
". c #7C8FA0",
"O c #7C90A1",
"+ c #7D90A1",
"# c #7E91A1",
"= c #7F93A3",
"- c #8194A5",
"; c #8195A5",
": c #8295A5",
"4 c #8599A9",
"6 c #879AAC",
"8 c #8C9FB0",
"0 c #8EA0B2",
"e c #92A5B6",
"t c #94A6B8",
"y c #97AABB",
"u c #98A9BC",
"p c #A2B4C6",
"a c #B0C1D4",
"s c None",
/* pixels */
"ssssssssssssssssssssssssssssssss",
"ssssssssssssssssssssssssssssssss",
"sss####O##########.##########sss",
"ss#upppy8pppppppppppppppppppu#ss",
"ss#paaaptaaaaaaaaa:aaaaaaaaap#ss",
"ss#paaaptaaaaaaaaa:aaaaaaaaap#ss",
"ss#paaaptaaaaaaaaa:aaaaaaaaap#ss",
"ssOypppyyyyyyyyyyy+yyyyyppppu#ss",
"ss#8tttteeeee.eeeeeeeeeeettt0+ss",
"ss#paaaaaaaaa:aaaaaaaaatpaaap#ss",
"ss#paaaaaaaaa:aaaaaaaaatpaaap#ss",
"ss#paaaaaaaaa:aaaaaaaaatpaaap#ss",
"ss#paaaaaaaaa:aaaaaaaaatpaaap#ss",
"ss-44444.::::-::::::::::4444-#ss",
"ss#paaaptaaaaaaaaa:aaaaaaaaap#ss",
"ss#paaaptaaaaaaaaa:aaaaaaaaap#ss",
"ss#paaaptaaaaaaaaa:aaaaaaaaap#ss",
"ss#paaaptaaaaaaaaa:aaaaaaaaap#ss",
"ss-44444======+=========4444-#ss",
"ss#paaaaaaaaa=aaaaaaaaatpaaap#ss",
"ss#paaaaaaaaa=aaaaaaaaatpaaap#ss",
"ss#paaaaaaaaa=aaaaaaaaatpaaap#ss",
"ss#paaaaaaaaa=aaaaaaaaatpaaap#ss",
"ss#8ttttt66666666666666;0ttt0+ss",
"ssOypppy8pppppppppppppppppppu#ss",
"ss#paaaptaaaaaaaaa:aaaaaaaaap#ss",
"ss#paaaptaaaaaaaaa:aaaaaaaaap#ss",
"ss#paaaptaaaaaaaaa:aaaaaaaaap#ss",
"ss#upppy8pppppppppppppppppppu#ss",
"sss####O##########.##########sss",
"ssssssssssssssssssssssssssssssss",
"ssssssssssssssssssssssssssssssss"
};
